<svg width="1018" height="104" viewBox="0 0 1018 104" fill="none" xmlns="http://www.w3.org/2000/svg">
<path fill-rule="evenodd" clip-rule="evenodd" d="M1018 0L975.333 13.4815C932.667 26.963 847.333 53.9259 762 55.8519C676.667 57.7778 591.333 34.6667 506 23.1111C420.667 11.5556 335.333 11.5556 250 15.4074C164.667 19.2593 79.3333 26.963 36.6666 30.8148L-6 34.6667V104H36.6666C79.3333 104 164.667 104 250 104C335.333 104 420.667 104 506 104C591.333 104 676.667 104 762 104C847.333 104 932.667 104 975.333 104H1018V0Z" fill="#3F3D56"/>
</svg>
